<svg t="1619927971377" class="icon" viewBox="0 0 1024 1024" version="1.1" xmlns="http://www.w3.org/2000/svg" p-id="7808"
    width="200" height="200">
    <path
        d="M896.41 573.85H399.974c-24.166 0-43.622 20.89-43.622 46.49s19.456 46.489 43.622 46.489H896.41c24.166 0 43.622-20.89 43.622-46.49 0-25.395-19.456-46.49-43.622-46.49z m0-216.679H399.974c-24.166 0-43.622 20.89-43.622 46.49s19.456 46.49 43.622 46.49H896.41c24.166 0 43.622-20.89 43.622-46.49s-19.456-46.49-43.622-46.49zM132.915 241.05h760.423c26.419 0 47.513-21.71 46.694-47.924-0.82-25.6-23.347-44.85-48.947-44.85H130.662c-26.419 0-47.513 21.708-46.694 47.922 0.82 25.396 23.347 44.852 48.947 44.852z m168.141 116.94L83.968 512l217.088 154.01z m590.029 424.96H130.662c-26.419 0-47.513 21.71-46.694 47.924 0.82 25.6 23.347 44.85 48.947 44.85h760.423c26.419 0 47.513-21.708 46.694-47.922-0.82-25.396-23.347-44.852-48.947-44.852z"
        p-id="7809"></path>
</svg>