<svg t="1619924254368" class="icon" viewBox="0 0 1024 1024" version="1.1" xmlns="http://www.w3.org/2000/svg" p-id="2607"
    width="200" height="200">
    <path
        d="M544.8 142.2c0-8.2 1.5-16.1 4.5-23.5l4.5-8.4c-0.4 0-14-15.5-40.9-46.5-0.7 1.9-91.3 110.7-271.7 326.6l102 122.1C275.8 592.9 241.9 633 241.1 633c180.4 218.1 271 327.2 271.7 327.2 0.7 0 90.8-109.1 270.1-327.2l-102-121 74-90.8-71.2-86.8c-17.6-21.3-23.7-39.6-18.5-54.9 1.1-5.2 3.5-9.7 7.3-13.4 1.9-1.1 3.7-2.2 5.6-3.4l-11.2-9.5-100.8 122.1-54.9-65c-49.3 59-91.7 110-127.2 153-18.7-23.2-39.6-48.7-62.8-76.8l189.9-224.7c44.1 52.7 66.5 79 67.2 79l10.1-12.9c-29.8-29.8-44.4-58.4-43.6-85.7m31.4 245.4c5.2-4.9 10.3-9 15.1-12.3 7.5-4.9 12.7-7.8 15.7-9 9-5.2 23.3 2.8 43.1 24.1 10.1 10.1 19.4 20.9 28 32.5 0 0.7-11.8 15.5-35.3 44.3l-66.6-79.6M320.7 633l61.6-73.4 130.5 155.8 127.7-155.2 63.9 75.6C576 790.5 511.7 867.4 511.7 866.7c-0.4-0.8-64-78.7-191-233.7m275.1-109.8c-54.5 65.4-82.2 98-82.9 98-0.7-0.7-30.6-37.5-89.6-110.4l88.5-106.5 91.9 110.4c-2.7 2.3-5.3 5.1-7.9 8.5z"
        p-id="2608" fill="#ffffff"></path>
</svg>